<svg width="364" height="271" viewBox="0 0 364 271" fill="none" xmlns="http://www.w3.org/2000/svg">
<g filter="url(#filter0_d_1505_2906)">
<path d="M334.652 183.368V27.319C334.652 24.2467 333.988 21.2107 332.706 18.419C329.228 10.8505 321.662 6 313.333 6H123.824H90.8673H64.1614C42.5331 6 25 23.5331 25 45.1614V183.368C25 204.996 42.5331 222.529 64.1613 222.529H295.491C317.119 222.529 334.652 204.996 334.652 183.368Z" fill="white"/>
<path d="M334.652 183.368V27.319C334.652 24.2467 333.988 21.2107 332.706 18.419C329.228 10.8505 321.662 6 313.333 6H123.824H90.8673H64.1614C42.5331 6 25 23.5331 25 45.1614V183.368C25 204.996 42.5331 222.529 64.1613 222.529H295.491C317.119 222.529 334.652 204.996 334.652 183.368Z" stroke="url(#paint0_linear_1505_2906)" stroke-width="3.91318"/>
</g>
<defs>
<filter id="filter0_d_1505_2906" x="0.873456" y="0.133396" width="363.125" height="270.003" filterUnits="userSpaceOnUse" color-interpolation-filters="sRGB">
<feFlood flood-opacity="0" result="BackgroundImageFix"/>
<feColorMatrix in="SourceAlpha" type="matrix" values="0 0 0 0 0 0 0 0 0 0 0 0 0 0 0 0 0 0 127 0" result="hardAlpha"/>
<feOffset dx="2.61" dy="20.87"/>
<feGaussianBlur stdDeviation="12.39"/>
<feComposite in2="hardAlpha" operator="out"/>
<feColorMatrix type="matrix" values="0 0 0 0 0 0 0 0 0 0 0 0 0 0 0 0 0 0 0.08 0"/>
<feBlend mode="normal" in2="BackgroundImageFix" result="effect1_dropShadow_1505_2906"/>
<feBlend mode="normal" in="SourceGraphic" in2="effect1_dropShadow_1505_2906" result="shape"/>
</filter>
<linearGradient id="paint0_linear_1505_2906" x1="79.9347" y1="14.7025" x2="292.059" y2="243.144" gradientUnits="userSpaceOnUse">
<stop stop-color="#29B8EE"/>
<stop offset="0.255" stop-color="#63E960"/>
<stop offset="0.505" stop-color="#5978E5"/>
<stop offset="1" stop-color="#8D2525"/>
</linearGradient>
</defs>
</svg>
